<mxfile host="65bd71144e">
    <diagram id="yIIqEk7P_r5QBRFyrBZL" name="Buisness Capability Map">
        <mxGraphModel dx="6257" dy="5064" grid="1" gridSize="10" guides="1" tooltips="1" connect="1" arrows="1" fold="1" page="1" pageScale="1" pageWidth="827" pageHeight="1169" math="0" shadow="0">
            <root>
                <mxCell id="0"/>
                <mxCell id="1" parent="0"/>
                <mxCell id="idHDxn-NZ1XEjVkruU0I-10" value="" style="rounded=1;whiteSpace=wrap;html=1;imageWidth=24;arcSize=5;fillColor=#d5e8d4;strokeColor=#82b366;" vertex="1" parent="1">
                    <mxGeometry x="-90" y="-550" width="4330" height="2610" as="geometry"/>
                </mxCell>
                <mxCell id="idHDxn-NZ1XEjVkruU0I-11" value="" style="rounded=1;whiteSpace=wrap;html=1;fillColor=#EDF7D2;arcSize=7;" vertex="1" parent="1">
                    <mxGeometry x="120" y="-370" width="1860" height="1830" as="geometry"/>
                </mxCell>
                <mxCell id="idHDxn-NZ1XEjVkruU0I-8" value="" style="rounded=1;whiteSpace=wrap;html=1;fillColor=#dae8fc;strokeColor=#6c8ebf;" vertex="1" parent="1">
                    <mxGeometry x="370" y="-40" width="240" height="670" as="geometry"/>
                </mxCell>
                <mxCell id="2" value="" style="html=1;outlineConnect=0;whiteSpace=wrap;fillColor=#F5DEAA;shape=mxgraph.archimate3.capability;" parent="1" vertex="1">
                    <mxGeometry x="1340" y="-170" width="40" height="40" as="geometry"/>
                </mxCell>
                <mxCell id="3" value="&lt;font style=&quot;font-size: 25px;&quot;&gt;Capability&lt;/font&gt;" style="html=1;outlineConnect=0;whiteSpace=wrap;fillColor=#F5DEAA;shape=mxgraph.archimate3.application;appType=capability;archiType=rounded;" parent="1" vertex="1">
                    <mxGeometry x="414" y="102.5" width="150" height="75" as="geometry"/>
                </mxCell>
                <mxCell id="4" value="&lt;font style=&quot;font-size: 25px;&quot;&gt;Capability&lt;/font&gt;" style="html=1;outlineConnect=0;whiteSpace=wrap;fillColor=#F5DEAA;shape=mxgraph.archimate3.application;appType=capability;archiType=rounded;" parent="1" vertex="1">
                    <mxGeometry x="414" y="250" width="150" height="75" as="geometry"/>
                </mxCell>
                <mxCell id="7" value="" style="verticalLabelPosition=bottom;shadow=0;dashed=0;align=center;html=1;verticalAlign=top;strokeWidth=2;shape=mxgraph.mockup.forms.horSlider;strokeColor=#E6E6E6;sliderStyle=basic;sliderPos=68.441;handleStyle=circle;fillColor2=#36BCD1;gradientColor=none;labelBorderColor=none;labelBackgroundColor=none;fillColor=#36BCD1;perimeterSpacing=0;fillOpacity=100;" parent="1" vertex="1">
                    <mxGeometry x="426" y="177.5" width="126" height="30" as="geometry"/>
                </mxCell>
                <mxCell id="idHDxn-NZ1XEjVkruU0I-7" value="" style="verticalLabelPosition=bottom;shadow=0;dashed=0;align=center;html=1;verticalAlign=top;strokeWidth=2;shape=mxgraph.mockup.forms.horSlider;strokeColor=#E6E6E6;sliderStyle=basic;sliderPos=31.839;handleStyle=circle;fillColor2=#36BCD1;gradientColor=none;labelBorderColor=none;labelBackgroundColor=none;fillColor=#36BCD1;perimeterSpacing=0;fillOpacity=100;" vertex="1" parent="1">
                    <mxGeometry x="426" y="340" width="126" height="30" as="geometry"/>
                </mxCell>
                <mxCell id="idHDxn-NZ1XEjVkruU0I-9" value="&lt;font style=&quot;font-size: 30px; color: rgb(255, 255, 255);&quot;&gt;Horizontal Container&lt;/font&gt;" style="swimlane;horizontal=0;whiteSpace=wrap;html=1;startSize=50;fillColor=#666666;fontColor=#FFFFFF;" vertex="1" parent="1">
                    <mxGeometry x="190" y="70" width="1200" height="330" as="geometry"/>
                </mxCell>
                <mxCell id="idHDxn-NZ1XEjVkruU0I-12" value="&lt;font style=&quot;color: rgb(255, 255, 255); font-size: 60px;&quot;&gt;&amp;nbsp; Ландшафт процессов и функций&lt;/font&gt;" style="shape=rect;strokeColor=default;fillColor=#008CFF;strokeWidth=3;dashed=0;rounded=1;arcSize=20;fontColor=#ffffff;fontSize=30;spacing=2;spacingTop=-2;align=left;autosize=1;spacingLeft=4;resizeWidth=0;resizeHeight=0;perimeter=none;html=1;whiteSpace=wrap;" vertex="1" parent="1">
                    <mxGeometry x="40" y="-590" width="990" height="80" as="geometry"/>
                </mxCell>
                <mxCell id="idHDxn-NZ1XEjVkruU0I-13" value="&lt;font style=&quot;color: rgb(255, 255, 255);&quot;&gt;&amp;nbsp;Функция&lt;/font&gt;" style="shape=rect;strokeColor=default;fillColor=#7EA6E0;strokeWidth=2;dashed=0;rounded=1;arcSize=20;fontColor=#ffffff;fontSize=30;spacing=2;spacingTop=-2;align=left;autosize=1;spacingLeft=4;resizeWidth=0;resizeHeight=0;perimeter=none;html=1;whiteSpace=wrap;" vertex="1" parent="1">
                    <mxGeometry x="414" y="-70" width="150" height="50" as="geometry"/>
                </mxCell>
                <mxCell id="idHDxn-NZ1XEjVkruU0I-14" value="Процессы первая категория" style="shape=rect;strokeColor=default;fillColor=#666666;strokeWidth=4;dashed=0;rounded=1;arcSize=20;fontColor=#ffffff;fontSize=50;spacing=2;spacingTop=-2;align=left;autosize=1;spacingLeft=4;resizeWidth=0;resizeHeight=0;perimeter=none;html=1;whiteSpace=wrap;" vertex="1" parent="1">
                    <mxGeometry x="260" y="-400" width="680" height="70" as="geometry"/>
                </mxCell>
            </root>
        </mxGraphModel>
    </diagram>
    <diagram id="NaxvBUjEVn4D0d6boA_5" name="Value Stream Mapping">
        <mxGraphModel dx="1086" dy="779" grid="1" gridSize="10" guides="1" tooltips="1" connect="1" arrows="1" fold="1" page="1" pageScale="1" pageWidth="827" pageHeight="1169" math="0" shadow="0">
            <root>
                <mxCell id="0"/>
                <mxCell id="1" parent="0"/>
            </root>
        </mxGraphModel>
    </diagram>
</mxfile>